<?xml version="1.0" encoding="UTF-8"?>
<svg id="Layer_2" data-name="Layer 2" xmlns="http://www.w3.org/2000/svg" viewBox="0 0 26.19 26.19">
  <defs>
    <style>
      .cls-1 {
        fill: #bd672e;
        stroke-width: 0px;
      }
    </style>
  </defs>
  <g id="Layer_1-2" data-name="Layer 1">
    <path class="cls-1" d="m13.84,13.09l-.75-.75-.75.75.75.75.75-.75Zm3.03,0c.5.31.98.65,1.55.82,1.15.33,2.38,0,3.22-.84.61-.61.96-1.45.96-2.32,0-1.09-.54-2.11-1.44-2.71-.08.37-.19.73-.34,1.08.46.43.71,1,.71,1.63s-.23,1.15-.65,1.57c-.05.05-.1.1-.16.14-.17-.08-.34-.14-.51-.19-.59-.17-1.22-.17-1.8,0-.58.16-1.05.5-1.55.82Zm5.48,8.2h-1.06v1.06h1.06v-1.06Zm2.34-8.2l.75.75.75-.75-.75-.75-.75.75Zm-2.5,5.2c-1.58,1.58-4.14,1.58-5.72,0l-2.09-2.09-.75.75,2.09,2.09c2,2,5.24,1.98,7.21,0,1.32-1.32,1.81-3.27,1.28-5.06-.26.39-.53.71-.87,1.04.12,1.22-.3,2.41-1.17,3.27Zm-7.81-4.66c-1.56,1.56-3.11,3.11-4.67,4.67-.29.29-.42.62-.42,1.02,0,.18.03.37.1.54.39-.23.76-.5,1.08-.82l3.91-3.91,2.64,2.64c.31.31.67.55,1.06.71,1.22.5,2.64.22,3.57-.71.64-.64.96-1.48.96-2.32,0-.23-.03-.46-.07-.68l.4-.4c.96-.96,1.49-2.25,1.49-3.61,0-1.94-1.09-3.7-2.82-4.57-.12-.06-.24-.12-.37-.17.06.39.07.79.05,1.19,1.29.71,2.09,2.07,2.09,3.54,0,1.08-.42,2.1-1.19,2.86l-.83.83c.11.36.2.6.2.99,0,.57-.22,1.14-.65,1.57-.64.64-1.6.83-2.43.49-.26-.1-.5-.26-.71-.48l-3.39-3.39Zm-1.29,3.24c-.31.5-.65.97-.82,1.55-.33,1.15,0,2.38.83,3.22.61.61,1.45.96,2.32.96,1.09,0,2.11-.54,2.71-1.44-.37-.08-.73-.19-1.08-.34-.43.46-1,.71-1.63.71s-1.15-.23-1.57-.65c-.05-.05-.1-.1-.15-.16.08-.17.14-.34.19-.51.17-.59.17-1.22,0-1.8-.16-.58-.5-1.05-.82-1.55Zm-8.2,5.48v-1.06h-1.06v1.06h1.06Zm8.2,2.34l-.75.75.75.75.75-.75-.75-.75Zm-5.2-2.5c-1.58-1.58-1.58-4.14,0-5.72l2.09-2.09-.75-.75-2.09,2.09c-2,2-1.98,5.24,0,7.21,1.32,1.32,3.27,1.81,5.06,1.28-.39-.26-.7-.53-1.04-.87-1.22.12-2.41-.3-3.27-1.17Zm4.66-7.81c-1.56-1.56-3.12-3.11-4.67-4.67-.29-.29-.62-.42-1.03-.42-.18,0-.37.03-.54.1.23.39.5.76.82,1.08l3.91,3.91-2.64,2.64c-.31.31-.55.67-.7,1.06-.5,1.22-.22,2.64.71,3.57.64.64,1.48.96,2.32.96.23,0,.46-.03.68-.07l.4.4c.96.96,2.25,1.49,3.61,1.49,1.94,0,3.7-1.09,4.57-2.82.06-.12.12-.24.17-.37-.39.06-.8.07-1.19.05-.71,1.29-2.07,2.09-3.54,2.09-1.08,0-2.1-.42-2.86-1.19l-.84-.83c-.36.11-.6.2-.99.2-.57,0-1.14-.22-1.57-.65-.64-.63-.83-1.6-.49-2.43.1-.26.26-.5.48-.71l3.39-3.39Zm-3.24-1.29c-.5-.31-.97-.65-1.55-.82-1.15-.33-2.38,0-3.22.83-.61.61-.96,1.45-.96,2.32,0,1.09.54,2.1,1.44,2.71.08-.37.19-.73.34-1.08-.46-.43-.71-1-.71-1.63s.23-1.15.65-1.57c.05-.05.1-.1.16-.15.17.08.34.14.51.19.59.17,1.22.17,1.8,0,.58-.16,1.05-.5,1.55-.82ZM3.83,4.89h1.06v-1.06h-1.06v1.06ZM1.5,13.09l-.75-.75-.75.75.75.75.75-.75Zm2.5-5.2c1.58-1.58,4.14-1.58,5.72,0l2.09,2.09.75-.75-2.09-2.09c-2-2-5.24-1.98-7.22,0-1.32,1.32-1.81,3.27-1.28,5.06.26-.39.53-.7.86-1.04-.12-1.22.3-2.41,1.17-3.27Zm7.81,4.66c1.56-1.56,3.11-3.12,4.67-4.67.29-.29.42-.62.42-1.02,0-.18-.03-.37-.1-.54-.39.23-.76.5-1.08.82l-3.91,3.91-2.64-2.64c-.31-.31-.67-.55-1.06-.7-1.22-.5-2.64-.22-3.57.71-.64.64-.96,1.48-.96,2.32,0,.23.03.46.07.68l-.4.4c-.96.96-1.49,2.25-1.49,3.61,0,1.93,1.09,3.7,2.82,4.57.12.06.24.12.37.17-.06-.39-.07-.79-.05-1.19-1.29-.71-2.09-2.07-2.09-3.54,0-1.08.42-2.1,1.19-2.86l.84-.84c-.11-.36-.2-.6-.2-.99,0-.57.22-1.14.65-1.57.64-.64,1.6-.83,2.43-.49.26.11.5.26.71.48l3.39,3.39Zm1.29-3.24c.31-.5.65-.97.82-1.55.33-1.15,0-2.38-.84-3.22-.61-.61-1.45-.96-2.32-.96-1.09,0-2.11.54-2.71,1.44.37.08.73.19,1.08.34.43-.46,1-.71,1.63-.71s1.15.23,1.57.65c.05.05.1.1.15.16-.08.17-.14.34-.19.51-.17.59-.17,1.22,0,1.8.16.58.5,1.05.82,1.55Zm8.2-5.48v1.06h1.06v-1.06h-1.06ZM13.09,1.5l.75-.75-.75-.75-.75.75.75.75Zm5.2,2.5c1.58,1.58,1.58,4.14,0,5.72l-2.09,2.09.75.75,2.09-2.09c2-2,1.98-5.24,0-7.21-1.32-1.32-3.27-1.81-5.06-1.28.39.26.7.53,1.04.87,1.22-.13,2.41.3,3.27,1.16Zm-4.66,7.81c1.56,1.56,3.11,3.11,4.67,4.67.29.29.62.42,1.03.42.18,0,.37-.03.54-.1-.23-.39-.5-.76-.82-1.08l-3.91-3.91,2.64-2.64c.31-.31.55-.67.7-1.06.5-1.22.22-2.64-.71-3.57-.64-.64-1.48-.96-2.32-.96-.22,0-.46.03-.68.07l-.4-.4c-.96-.96-2.25-1.49-3.61-1.49-1.94,0-3.7,1.09-4.57,2.82-.06.12-.12.24-.17.37.39-.05.8-.07,1.19-.05.71-1.29,2.07-2.09,3.54-2.09,1.08,0,2.1.42,2.86,1.19l.84.84c.36-.11.6-.2.99-.2.57,0,1.14.22,1.57.65.64.64.83,1.6.49,2.43-.1.26-.26.5-.48.71l-3.38,3.39Z"/>
  </g>
</svg>