<?xml version="1.0" encoding="UTF-8"?>
<svg id="Layer_2" data-name="Layer 2" xmlns="http://www.w3.org/2000/svg" viewBox="0 0 38.21 52.56">
  <defs>
    <style>
      .cls-1 {
        fill: #898989;
        stroke-width: 0px;
      }
    </style>
  </defs>
  <g id="Layer_1-2" data-name="Layer 1">
    <path class="cls-1" d="m6.68,43.27c-.03.33-.05.65-.07.96-.01.31-.02.55-.02.71,0,.21,0,.41.01.59s.02.35.02.49h-.27c-.06-.61-.13-1.09-.23-1.45-.09-.35-.26-.61-.5-.77-.24-.16-.6-.24-1.1-.24h-.64v7.46c0,.35.03.61.09.79.06.18.18.29.35.35.17.06.43.1.76.12v.26H1.59v-.26c.33-.02.58-.06.76-.12.17-.06.29-.18.35-.35.06-.18.09-.44.09-.79v-7.46h-.64c-.49,0-.86.08-1.1.24-.24.16-.41.41-.5.77-.09.35-.17.84-.22,1.45H.05c.02-.14.03-.3.03-.49s0-.38,0-.59c0-.17,0-.4-.02-.71-.01-.31-.03-.63-.07-.96.33,0,.69.02,1.08.03s.78.01,1.18.01h2.15c.39,0,.78,0,1.18-.01s.75-.02,1.08-.03Z"/>
    <path class="cls-1" d="m9.17,43.16v4.49c.21-.54.5-.92.87-1.13.37-.21.76-.31,1.17-.31.3,0,.56.04.76.12s.37.19.51.34c.15.16.26.36.32.6.06.24.1.56.1.97v3.2c0,.34.07.56.21.68.14.12.37.18.7.18v.25h-2.22c-.25,0-.44,0-.57,0v-.25c.29,0,.49-.06.61-.18s.18-.35.18-.68v-3.47c0-.25-.02-.48-.06-.68-.04-.21-.13-.38-.27-.5-.14-.13-.35-.19-.64-.19-.33,0-.62.09-.87.28-.25.18-.45.44-.59.77s-.22.7-.22,1.13v2.68c0,.34.06.56.18.68s.32.18.61.18v.25h-2.16c-.28,0-.49,0-.62,0v-.25c.33,0,.56-.06.7-.18.14-.12.21-.35.21-.68v-6.84c0-.36-.06-.63-.19-.8s-.37-.26-.72-.26v-.25c.26.02.5.04.74.04s.45-.01.67-.04c.21-.03.41-.07.58-.13Z"/>
    <path class="cls-1" d="m16.32,46.25v5.2c0,.34.07.56.21.68.14.12.37.18.7.18v.25h-2.9v-.25c.33,0,.56-.06.7-.18.14-.12.21-.35.21-.68v-3.76c0-.36-.06-.63-.19-.8-.13-.17-.37-.26-.72-.26v-.25c.26.02.5.04.74.04s.45-.01.67-.04c.21-.03.41-.07.58-.13Zm-.62-2.87c.21,0,.39.08.54.23.15.15.23.33.23.54s-.08.39-.23.54c-.15.15-.33.23-.54.23s-.39-.08-.54-.23c-.15-.15-.23-.33-.23-.54s.08-.39.23-.54c.15-.15.33-.23.54-.23Z"/>
    <path class="cls-1" d="m19.77,44.22v2h1.78v.24h-1.78v4.64c0,.38.07.64.2.79.14.15.32.23.56.23s.45-.1.62-.29c.18-.2.33-.53.46-.99l.24.06c-.08.46-.24.86-.47,1.18-.24.32-.6.48-1.09.48-.27,0-.5-.03-.67-.1-.18-.07-.33-.17-.47-.29-.18-.18-.3-.4-.37-.66-.07-.26-.1-.6-.1-1.02v-4.02h-1.15v-.24h1.15v-1.84c.2,0,.39-.02.58-.05.18-.02.35-.06.5-.12Z"/>
    <path class="cls-1" d="m24.22,46.04c.32,0,.59.05.82.16.22.1.39.2.49.29.26.22.42.07.48-.43h.28c-.02.22-.03.49-.04.8,0,.31-.01.72-.01,1.24h-.28c-.05-.3-.13-.58-.25-.86-.12-.28-.29-.51-.51-.69-.22-.18-.52-.27-.88-.27-.28,0-.51.08-.7.23-.19.16-.28.39-.28.69,0,.24.07.45.22.62s.33.33.56.48c.23.15.48.31.76.49.3.19.58.39.83.59.25.2.45.42.59.66.15.24.22.52.22.85,0,.37-.1.68-.29.92-.19.25-.44.44-.75.56-.31.13-.65.19-1.01.19-.18,0-.34-.01-.5-.04s-.31-.07-.45-.13c-.08-.04-.16-.09-.25-.14-.08-.06-.17-.12-.25-.18-.08-.06-.15-.06-.22,0-.06.07-.11.2-.14.4h-.28c.02-.26.03-.57.04-.94,0-.37.01-.86.01-1.46h.28c.06.45.14.84.24,1.18.1.34.27.6.49.79.22.19.54.28.94.28.16,0,.32-.04.49-.11.16-.07.3-.19.41-.36.11-.17.17-.39.17-.67,0-.35-.13-.64-.38-.86-.26-.22-.58-.46-.97-.71-.29-.18-.56-.37-.81-.55s-.46-.39-.61-.62-.23-.51-.23-.84c0-.36.08-.65.25-.88.16-.23.38-.4.65-.5.27-.11.56-.16.88-.16Z"/>
    <path class="cls-1" d="m29.13,52.56c-.33,0-.61-.06-.85-.19-.24-.12-.42-.3-.55-.52-.12-.22-.19-.48-.19-.78,0-.35.08-.64.25-.86.16-.22.37-.4.63-.54.26-.14.53-.25.81-.34.29-.09.55-.18.81-.26s.47-.18.63-.29c.16-.11.25-.26.25-.44v-.74c0-.34-.05-.59-.15-.77-.1-.18-.23-.29-.4-.35-.17-.06-.36-.09-.56-.09s-.41.03-.64.08c-.23.06-.41.17-.55.35.15.03.28.11.4.24.11.13.17.29.17.49s-.06.36-.19.47-.29.17-.49.17c-.23,0-.4-.07-.51-.22-.11-.15-.16-.31-.16-.5,0-.21.05-.38.16-.5.1-.13.24-.25.4-.36.18-.13.42-.24.71-.33s.62-.14.99-.14c.33,0,.61.04.84.11.23.08.42.19.58.33.21.19.34.43.41.7.06.28.1.61.1.99v3.34c0,.2.03.34.09.43.06.09.15.13.28.13.09,0,.17-.02.25-.06s.18-.1.29-.19l.13.2c-.17.13-.33.23-.48.32-.15.08-.36.13-.61.13-.23,0-.42-.04-.58-.12s-.27-.2-.34-.35c-.08-.16-.11-.35-.11-.59-.22.36-.47.63-.77.8-.3.18-.64.26-1.01.26Zm.43-.48c.26,0,.51-.08.74-.23.23-.15.43-.38.62-.68v-2.35c-.1.14-.24.25-.42.34-.18.09-.38.18-.6.28-.21.09-.42.2-.62.32-.2.12-.36.29-.49.49-.13.2-.19.46-.19.78s.09.58.26.77c.17.19.41.29.7.29Z"/>
    <path class="cls-1" d="m37.12,46.21c.22,0,.41.04.57.13s.29.2.38.34c.09.14.14.3.14.47,0,.2-.06.38-.19.53-.12.15-.29.23-.5.23-.17,0-.32-.05-.44-.16-.13-.11-.19-.26-.19-.46,0-.15.04-.28.13-.39.08-.11.18-.19.28-.26-.06-.08-.14-.12-.25-.12-.25,0-.48.07-.68.22-.21.15-.38.34-.53.57-.14.23-.26.48-.34.74s-.12.5-.12.73v2.54c0,.39.11.65.34.79.23.13.54.2.93.2v.25h-3.26v-.25c.33,0,.56-.06.7-.18s.21-.35.21-.68v-3.76c0-.36-.06-.63-.19-.8-.13-.17-.37-.26-.72-.26v-.25c.26.02.5.04.74.04s.45-.01.67-.04c.21-.03.41-.07.58-.13v1.5c.09-.23.21-.47.38-.7.16-.24.36-.43.59-.59.23-.16.49-.24.77-.24Z"/>
    <path class="cls-1" d="m5.71,33.27c-.03.28-.05.55-.06.82-.01.26-.02.46-.02.6,0,.14,0,.28.01.41s.01.24.02.33h-.26c-.05-.47-.11-.85-.19-1.12s-.23-.47-.43-.59-.51-.17-.91-.17h-.95c-.26,0-.46.02-.59.07-.13.04-.22.14-.27.28s-.07.36-.07.65v5.95c0,.29.02.5.07.65s.14.24.27.28c.13.04.33.07.59.07h.84c.48,0,.85-.07,1.09-.2.25-.14.43-.36.54-.67.11-.31.19-.73.25-1.25h.26c-.02.22-.03.5-.03.86,0,.15,0,.37.02.65.01.28.03.58.06.88-.39,0-.83,0-1.32,0s-.92,0-1.3,0h-.65c-.26,0-.55,0-.85,0s-.61,0-.93,0h-.89v-.24c.26-.02.46-.05.59-.1.13-.05.22-.14.27-.29.05-.14.07-.36.07-.65v-5.95c0-.3-.02-.51-.07-.65-.05-.14-.14-.24-.27-.29-.13-.05-.33-.08-.59-.09v-.24c.28,0,.58.01.89.02.31,0,.62,0,.93.01.3,0,.59,0,.85,0h.65c.35,0,.75,0,1.2,0,.45,0,.85-.01,1.2-.03Zm-2.97,4.1v.24h-1.14v-.24h1.14Zm1.33-1.58c-.03.46-.04.8-.04,1.04,0,.24,0,.46,0,.66s0,.42.01.66c0,.24.03.59.06,1.04h-.26c-.03-.26-.07-.51-.11-.75-.04-.24-.13-.44-.27-.6-.14-.16-.38-.23-.72-.23v-.24c.25,0,.44-.05.58-.16.13-.11.23-.25.29-.41.06-.17.1-.34.13-.52.02-.18.05-.34.07-.49h.26Z"/>
    <path class="cls-1" d="m8.71,33.43v2h1.78v.24h-1.78v4.64c0,.38.07.64.2.79.14.15.32.23.56.23s.45-.1.62-.29c.18-.2.33-.53.46-.99l.24.06c-.08.46-.24.86-.47,1.18-.24.32-.6.48-1.09.48-.27,0-.5-.03-.67-.1-.18-.07-.33-.17-.47-.29-.18-.18-.3-.4-.37-.66-.07-.26-.1-.6-.1-1.02v-4.02h-1.15v-.24h1.15v-1.84c.2,0,.39-.02.58-.05.18-.02.35-.06.5-.12Z"/>
    <path class="cls-1" d="m13.86,35.25c.7,0,1.25.21,1.65.64.4.43.59,1.09.59,2h-4.24v-.23s3.08,0,3.08,0c.02-.39-.02-.75-.1-1.09-.08-.33-.21-.6-.38-.8-.17-.2-.39-.3-.67-.3-.37,0-.69.18-.98.55-.28.37-.45.95-.51,1.75l.04.05c-.02.12-.03.25-.04.4,0,.14-.01.29-.01.43,0,.54.09,1.01.26,1.4.18.39.41.69.69.89.28.2.58.31.88.31.24,0,.47-.04.68-.11.22-.08.42-.2.6-.38.18-.18.34-.41.48-.71l.24.1c-.09.26-.23.52-.43.77-.2.25-.45.45-.76.61-.3.16-.66.23-1.06.23-.58,0-1.07-.13-1.48-.4-.41-.26-.73-.63-.95-1.1s-.33-1.01-.33-1.61c0-.7.11-1.31.34-1.82s.54-.9.95-1.18c.41-.28.88-.41,1.43-.41Z"/>
    <path class="cls-1" d="m20.67,35.42c.22,0,.41.04.57.13s.29.2.38.34c.09.14.14.3.14.47,0,.2-.06.38-.19.53-.12.15-.29.23-.5.23-.17,0-.32-.05-.44-.16-.13-.11-.19-.26-.19-.46,0-.15.04-.28.13-.39.08-.11.18-.19.28-.26-.06-.08-.14-.12-.25-.12-.25,0-.48.07-.68.22-.21.15-.38.34-.53.57-.14.23-.26.48-.34.74s-.12.5-.12.73v2.54c0,.39.11.65.34.79.23.13.54.2.93.2v.25h-3.26v-.25c.33,0,.56-.06.7-.18s.21-.35.21-.68v-3.76c0-.36-.06-.63-.19-.8s-.37-.26-.72-.26v-.25c.26.02.5.04.74.04s.45-.01.67-.04c.21-.03.41-.07.58-.13v1.5c.09-.23.21-.47.38-.7.16-.24.36-.43.59-.59.23-.16.49-.24.77-.24Z"/>
    <path class="cls-1" d="m26.22,35.42c.3,0,.56.04.76.12s.37.19.51.34c.15.16.26.36.32.6.06.24.1.56.1.97v3.2c0,.34.07.56.21.68.14.12.37.18.7.18v.25h-2.78v-.25c.29,0,.49-.06.61-.18s.18-.35.18-.68v-3.47c0-.25-.02-.48-.06-.68s-.13-.38-.27-.5c-.14-.13-.35-.19-.64-.19-.34,0-.63.1-.88.29-.25.19-.45.45-.59.79s-.21.7-.21,1.11v2.66c0,.34.06.56.18.68s.32.18.61.18v.25h-2.78v-.25c.33,0,.56-.06.7-.18s.21-.35.21-.68v-3.76c0-.36-.06-.63-.19-.8s-.37-.26-.72-.26v-.25c.26.02.5.04.74.04s.45-.01.67-.04c.21-.03.41-.07.58-.13v1.42c.21-.54.5-.92.87-1.13s.76-.32,1.17-.32Z"/>
    <path class="cls-1" d="m30.97,41.77c-.33,0-.61-.06-.85-.19-.24-.12-.42-.3-.55-.52s-.19-.48-.19-.78c0-.35.08-.64.25-.86.16-.22.37-.4.63-.54.26-.14.53-.25.81-.34.28-.09.55-.18.81-.26s.47-.18.63-.29c.16-.11.25-.26.25-.44v-.74c0-.34-.05-.59-.15-.77-.1-.18-.23-.29-.4-.35-.17-.06-.36-.09-.56-.09s-.41.03-.64.08c-.23.06-.41.17-.55.35.15.03.28.11.4.24.11.13.17.29.17.49s-.06.36-.19.47-.29.17-.49.17c-.23,0-.4-.07-.51-.22-.11-.15-.16-.31-.16-.5,0-.21.05-.38.16-.5.1-.13.24-.25.4-.36.18-.13.42-.24.71-.33s.62-.14.99-.14c.33,0,.61.04.84.11.23.08.42.19.58.33.21.19.34.43.41.7.06.28.1.61.1.99v3.34c0,.2.03.34.09.43.06.09.15.13.28.13.09,0,.17-.02.25-.06s.18-.1.29-.19l.13.2c-.17.13-.33.23-.48.32-.15.08-.36.13-.61.13-.23,0-.42-.04-.58-.12-.15-.08-.27-.2-.34-.35-.08-.16-.11-.35-.11-.59-.22.36-.47.63-.77.8s-.64.26-1.01.26Zm.43-.48c.26,0,.51-.08.74-.23.23-.15.43-.38.62-.68v-2.35c-.1.14-.24.25-.42.34-.18.09-.38.18-.6.28s-.42.2-.62.32-.36.29-.49.49c-.13.2-.19.46-.19.78s.09.58.26.77c.17.19.41.29.7.29Z"/>
    <path class="cls-1" d="m37.07,32.36v8.29c0,.34.07.56.21.68s.37.18.7.18v.25h-2.9v-.25c.33,0,.56-.06.7-.18s.21-.35.21-.68v-6.85c0-.36-.06-.63-.19-.8s-.37-.26-.72-.26v-.25c.26.02.5.04.74.04s.45-.01.67-.04c.21-.03.41-.07.58-.13Z"/>
    <path class="cls-1" d="m20.1,13.09l-.75-.75-.75.75.75.75.75-.75Zm3.03,0c.5.31.98.65,1.55.82,1.15.33,2.38,0,3.22-.84.61-.61.96-1.45.96-2.32,0-1.09-.54-2.11-1.44-2.71-.08.37-.19.73-.34,1.08.46.43.71,1,.71,1.63s-.23,1.15-.65,1.57c-.05.05-.1.1-.16.14-.17-.08-.34-.14-.51-.19-.59-.17-1.22-.17-1.8,0-.58.16-1.05.5-1.55.82Zm5.48,8.2h-1.06v1.06h1.06v-1.06Zm2.34-8.2l.75.75.75-.75-.75-.75-.75.75Zm-2.5,5.2c-1.58,1.58-4.14,1.58-5.72,0l-2.09-2.09-.75.75,2.09,2.09c2,2,5.24,1.98,7.21,0,1.32-1.32,1.81-3.27,1.28-5.06-.26.39-.53.71-.87,1.04.12,1.22-.3,2.41-1.17,3.27Zm-7.81-4.66c-1.56,1.56-3.11,3.11-4.67,4.67-.29.29-.42.62-.42,1.02,0,.18.03.37.1.54.39-.23.76-.5,1.08-.82l3.91-3.91,2.64,2.64c.31.31.67.55,1.06.71,1.22.5,2.64.22,3.57-.71.64-.64.96-1.48.96-2.32,0-.23-.03-.46-.07-.68l.4-.4c.96-.96,1.49-2.25,1.49-3.61,0-1.94-1.09-3.7-2.82-4.57-.12-.06-.24-.12-.37-.17.06.39.07.79.05,1.19,1.29.71,2.09,2.07,2.09,3.54,0,1.08-.42,2.1-1.19,2.86l-.83.83c.11.36.2.6.2.99,0,.57-.22,1.14-.65,1.57-.64.64-1.6.83-2.43.49-.26-.1-.5-.26-.71-.48l-3.39-3.39Zm-1.29,3.24c-.31.5-.65.97-.82,1.55-.33,1.15,0,2.38.83,3.22.61.61,1.45.96,2.32.96,1.09,0,2.11-.54,2.71-1.44-.37-.08-.73-.19-1.08-.34-.43.46-1,.71-1.63.71s-1.15-.23-1.57-.65c-.05-.05-.1-.1-.15-.16.08-.17.14-.34.19-.51.17-.59.17-1.22,0-1.8-.16-.58-.5-1.05-.82-1.55Zm-8.2,5.48v-1.06h-1.06v1.06h1.06Zm8.2,2.34l-.75.75.75.75.75-.75-.75-.75Zm-5.2-2.5c-1.58-1.58-1.58-4.14,0-5.72l2.09-2.09-.75-.75-2.09,2.09c-2,2-1.98,5.24,0,7.21,1.32,1.32,3.27,1.81,5.06,1.28-.39-.26-.7-.53-1.04-.87-1.22.12-2.41-.3-3.27-1.17Zm4.66-7.81c-1.56-1.56-3.12-3.11-4.67-4.67-.29-.29-.62-.42-1.03-.42-.18,0-.37.03-.54.1.23.39.5.76.82,1.08l3.91,3.91-2.64,2.64c-.31.31-.55.67-.7,1.06-.5,1.22-.22,2.64.71,3.57.64.64,1.48.96,2.32.96.23,0,.46-.03.68-.07l.4.4c.96.96,2.25,1.49,3.61,1.49,1.94,0,3.7-1.09,4.57-2.82.06-.12.12-.24.17-.37-.39.06-.8.07-1.19.05-.71,1.29-2.07,2.09-3.54,2.09-1.08,0-2.1-.42-2.86-1.19l-.84-.83c-.36.11-.6.2-.99.2-.57,0-1.14-.22-1.57-.65-.64-.63-.83-1.6-.49-2.43.1-.26.26-.5.48-.71l3.39-3.39Zm-3.24-1.29c-.5-.31-.97-.65-1.55-.82-1.15-.33-2.38,0-3.22.83-.61.61-.96,1.45-.96,2.32,0,1.09.54,2.1,1.44,2.71.08-.37.19-.73.34-1.08-.46-.43-.71-1-.71-1.63s.23-1.15.65-1.57c.05-.05.1-.1.16-.15.17.08.34.14.51.19.59.17,1.22.17,1.8,0,.58-.16,1.05-.5,1.55-.82Zm-5.48-8.2h1.06v-1.06h-1.06v1.06Zm-2.34,8.2l-.75-.75-.75.75.75.75.75-.75Zm2.5-5.2c1.58-1.58,4.14-1.58,5.72,0l2.09,2.09.75-.75-2.09-2.09c-2-2-5.24-1.98-7.22,0-1.32,1.32-1.81,3.27-1.28,5.06.26-.39.53-.7.86-1.04-.12-1.22.3-2.41,1.17-3.27Zm7.81,4.66c1.56-1.56,3.11-3.12,4.67-4.67.29-.29.42-.62.42-1.02,0-.18-.03-.37-.1-.54-.39.23-.76.5-1.08.82l-3.91,3.91-2.64-2.64c-.31-.31-.67-.55-1.06-.7-1.22-.5-2.64-.22-3.57.71-.64.64-.96,1.48-.96,2.32,0,.23.03.46.07.68l-.4.4c-.96.96-1.49,2.25-1.49,3.61,0,1.93,1.09,3.7,2.82,4.57.12.06.24.12.37.17-.06-.39-.07-.79-.05-1.19-1.29-.71-2.09-2.07-2.09-3.54,0-1.08.42-2.1,1.19-2.86l.84-.84c-.11-.36-.2-.6-.2-.99,0-.57.22-1.14.65-1.57.64-.64,1.6-.83,2.43-.49.26.11.5.26.71.48l3.39,3.39Zm1.29-3.24c.31-.5.65-.97.82-1.55.33-1.15,0-2.38-.84-3.22-.61-.61-1.45-.96-2.32-.96-1.09,0-2.11.54-2.71,1.44.37.08.73.19,1.08.34.43-.46,1-.71,1.63-.71s1.15.23,1.57.65c.05.05.1.1.15.16-.08.17-.14.34-.19.51-.17.59-.17,1.22,0,1.8.16.58.5,1.05.82,1.55Zm8.2-5.48v1.06h1.06v-1.06h-1.06Zm-8.2-2.34l.75-.75-.75-.75-.75.75.75.75Zm5.2,2.5c1.58,1.58,1.58,4.14,0,5.72l-2.09,2.09.75.75,2.09-2.09c2-2,1.98-5.24,0-7.21-1.32-1.32-3.27-1.81-5.06-1.28.39.26.7.53,1.04.87,1.22-.13,2.41.3,3.27,1.16Zm-4.66,7.81c1.56,1.56,3.11,3.11,4.67,4.67.29.29.62.42,1.03.42.18,0,.37-.03.54-.1-.23-.39-.5-.76-.82-1.08l-3.91-3.91,2.64-2.64c.31-.31.55-.67.7-1.06.5-1.22.22-2.64-.71-3.57-.64-.64-1.48-.96-2.32-.96-.22,0-.46.03-.68.07l-.4-.4c-.96-.96-2.25-1.49-3.61-1.49-1.94,0-3.7,1.09-4.57,2.82-.06.12-.12.24-.17.37.39-.05.8-.07,1.19-.05.71-1.29,2.07-2.09,3.54-2.09,1.08,0,2.1.42,2.86,1.19l.84.84c.36-.11.6-.2.99-.2.57,0,1.14.22,1.57.65.64.64.83,1.6.49,2.43-.1.26-.26.5-.48.71l-3.38,3.39Z"/>
  </g>
</svg>